<?xml version="1.0" encoding="UTF-8"?>
<svg width="752pt" height="752pt" version="1.1" viewBox="0 0 752 752" xmlns="http://www.w3.org/2000/svg">
 <path d="m535.84 269.45c-29.426 0-53.277-23.852-53.277-53.277s23.852-53.277 53.277-53.277c29.422 0 53.277 23.852 53.277 53.277s-23.855 53.277-53.277 53.277zm-159.84 0c-29.422 0-53.277-23.852-53.277-53.277s23.855-53.277 53.277-53.277c29.426 0 53.277 23.852 53.277 53.277s-23.852 53.277-53.277 53.277zm-159.83 0c-29.426 0-53.277-23.852-53.277-53.277s23.852-53.277 53.277-53.277 53.277 23.852 53.277 53.277-23.852 53.277-53.277 53.277zm319.67 159.83c-29.426 0-53.277-23.852-53.277-53.277 0-29.422 23.852-53.277 53.277-53.277 29.422 0 53.277 23.855 53.277 53.277 0 29.426-23.855 53.277-53.277 53.277zm-159.84 0c-29.422 0-53.277-23.852-53.277-53.277 0-29.422 23.855-53.277 53.277-53.277 29.426 0 53.277 23.855 53.277 53.277 0 29.426-23.852 53.277-53.277 53.277zm-159.83 0c-29.426 0-53.277-23.852-53.277-53.277 0-29.422 23.852-53.277 53.277-53.277s53.277 23.855 53.277 53.277c0 29.426-23.852 53.277-53.277 53.277zm319.67 159.84c-29.426 0-53.277-23.855-53.277-53.277 0-29.426 23.852-53.277 53.277-53.277 29.422 0 53.277 23.852 53.277 53.277 0 29.422-23.855 53.277-53.277 53.277zm-159.84 0c-29.422 0-53.277-23.855-53.277-53.277 0-29.426 23.855-53.277 53.277-53.277 29.426 0 53.277 23.852 53.277 53.277 0 29.422-23.852 53.277-53.277 53.277zm-159.83 0c-29.426 0-53.277-23.855-53.277-53.277 0-29.426 23.852-53.277 53.277-53.277s53.277 23.852 53.277 53.277c0 29.422-23.852 53.277-53.277 53.277z" fill-rule="evenodd"/>
</svg>
