<?xml version="1.0" encoding="UTF-8"?>
<svg width="752pt" height="752pt" version="1.1" viewBox="0 0 752 752" xmlns="http://www.w3.org/2000/svg">
 <g fill="#3b6af9">
  <path d="m435.2 262.93c-3.4688-3.4609-9.082-3.4609-12.551 0l-183.51 183.51c-1.332 1.332-2.2031 3.0547-2.4883 4.9141l-14.855 68.789c-0.62891 2.9414 0.27734 6.0039 2.4023 8.1328 2.1289 2.125 5.1914 3.0312 8.1328 2.4023l67.191-14.383c2.3984 0.0625 4.7188-0.88281 6.3906-2.6055l183.51-183.51h0.003906c3.4609-3.4688 3.4609-9.0859 0-12.551z"/>
  <path d="m535.84 271.16-54.402-54.402c-3.5195-3.3398-9.0352-3.3398-12.551 0l-25.102 25.102v-0.003906c-3.4609 3.4688-3.4609 9.082 0 12.551l54.402 54.402c3.4688 3.4609 9.0859 3.4609 12.551 0l25.102-25.102c3.4609-3.4648 3.4609-9.082 0-12.547z"/>
 </g>
</svg>
