<?xml version="1.0" encoding="UTF-8"?>
<svg width="752pt" height="752pt" version="1.1" viewBox="0 0 752 752" xmlns="http://www.w3.org/2000/svg">
 <path d="m422.8 394.61c-1.6914 2.7852-1.168 6.9336 1.0938 9.1953l42.66 42.664c5.5508 5.5469 5.5508 14.543 0 20.09-5.5469 5.5508-14.543 5.5508-20.09 0l-42.664-42.66c-2.293-2.2969-6.4297-2.75-9.2539-1.0625 0 0-1.0469 0.77734-4.3281 2.375-10.016 4.8828-21.27 7.625-33.16 7.625-41.848 0-75.773-33.926-75.773-75.773s33.926-75.773 75.773-75.773 75.773 33.926 75.773 75.773c0 11.934-2.7617 23.227-7.6758 33.266-1.5859 3.2461-2.3555 4.2812-2.3555 4.2812zm-65.742 9.8125c26.156 0 47.359-21.203 47.359-47.359s-21.203-47.359-47.359-47.359-47.359 21.203-47.359 47.359 21.203 47.359 47.359 47.359z" fill="#9b9b9b"/>
</svg>
